<svg class="h-full" xmlns="http://www.w3.org/2000/svg" viewBox="0 0 752 120"><path d="M15.8,0h88.4A15.81,15.81,0,0,1,120,15.8v88.41A15.8,15.8,0,0,1,104.2,120H15.8A15.81,15.81,0,0,1,0,104.21V15.76A15.78,15.78,0,0,1,15.8,0" style="fill:#5468ff"></path><path d="M72.5,26.79V22.68a5.21,5.21,0,0,0-5.21-5.21H55.15a5.21,5.21,0,0,0-5.21,5.21V26.9a.72.72,0,0,0,.91.69A38.13,38.13,0,0,1,61.42,26.1a38.61,38.61,0,0,1,10.21,1.38.7.7,0,0,0,.87-.69M39.22,32.18,37.14,30.1a5.21,5.21,0,0,0-7.36,0L27.3,32.58a5.18,5.18,0,0,0,0,7.35l2,2a.73.73,0,0,0,1.09-.07,40,40,0,0,1,4-4.66,37,37,0,0,1,4.7-4,.7.7,0,0,0,.11-1.06M61.38,45.24V63a.7.7,0,0,0,1,.62l15.83-8.19a.72.72,0,0,0,.29-1,19.71,19.71,0,0,0-16.41-9.94.73.73,0,0,0-.73.69m0,42.88A23.88,23.88,0,1,1,85.3,64.24,23.91,23.91,0,0,1,61.38,88.12m0-57.8A33.91,33.91,0,1,0,95.32,64.21,33.93,33.93,0,0,0,61.38,30.32" style="fill:#fff"></path><path d="M239.21,95.18c-23.36.11-23.36-18.86-23.36-21.88l0-71L230.06,0V70.61c0,1.71,0,12.56,9.15,12.59ZM181.43,83.57a54.46,54.46,0,0,0,9.88-.69V68.39a28.94,28.94,0,0,0-3.43-.69,33.63,33.63,0,0,0-4.95-.37,29.87,29.87,0,0,0-4.78.37A14.46,14.46,0,0,0,173.81,69a7.92,7.92,0,0,0-3.1,2.62,5,5,0,0,0-1.16,3.5c0,3.35,1.16,5.28,3.28,6.55a16.55,16.55,0,0,0,8.6,1.93Zm-1.24-51.69a35.31,35.31,0,0,1,11.89,1.75,19.1,19.1,0,0,1,7.69,4.88,18.91,18.91,0,0,1,4,7.9,36.26,36.26,0,0,1,1.24,9.86V92.89c-2.18.47-5.5,1-10,1.67a104.12,104.12,0,0,1-15,1A45.67,45.67,0,0,1,170,94.49a21.28,21.28,0,0,1-7.84-3.39,16.38,16.38,0,0,1-5.06-6,22.85,22.85,0,0,1-1.83-9.61,15,15,0,0,1,2.05-8.12,17.25,17.25,0,0,1,5.57-5.89,24.12,24.12,0,0,1,8.17-3.28,47.18,47.18,0,0,1,9.69-1,48.63,48.63,0,0,1,5,.29,43.71,43.71,0,0,1,5.55,1V56.12a17.53,17.53,0,0,0-.59-4.65,9.92,9.92,0,0,0-2-3.9A9.62,9.62,0,0,0,184.79,45a16.88,16.88,0,0,0-6.09-1.09,52.56,52.56,0,0,0-9,.87A40.9,40.9,0,0,0,163,46.37l-1.71-11.68a56.8,56.8,0,0,1,7.88-1.86,58.44,58.44,0,0,1,11-.95ZM461.7,83.17a54.28,54.28,0,0,0,9.88-.7V68a26.72,26.72,0,0,0-3.43-.7,33.75,33.75,0,0,0-5-.36,31,31,0,0,0-4.77.36,14.18,14.18,0,0,0-4.34,1.28A7.77,7.77,0,0,0,451,71.2a5,5,0,0,0-1.16,3.49c0,3.35,1.16,5.28,3.28,6.55s5,1.93,8.6,1.93Zm-1.2-51.65a35,35,0,0,1,11.88,1.75,19,19,0,0,1,7.69,4.87,19.16,19.16,0,0,1,4.05,7.9,36.34,36.34,0,0,1,1.24,9.87V92.52c-2.19.48-5.51,1-9.95,1.68a102.84,102.84,0,0,1-15,1,45.52,45.52,0,0,1-10.09-1.05,21.2,21.2,0,0,1-7.84-3.39,16.41,16.41,0,0,1-5.07-6,23,23,0,0,1-1.82-9.61,15.07,15.07,0,0,1,2-8.12,17.3,17.3,0,0,1,5.58-5.9,24.05,24.05,0,0,1,8.16-3.27,46.59,46.59,0,0,1,9.7-1,48.63,48.63,0,0,1,5,.29,42.67,42.67,0,0,1,5.54,1V55.76A17.61,17.61,0,0,0,471,51.1,10,10,0,0,0,469,47.21a9.39,9.39,0,0,0-3.86-2.62A16.84,16.84,0,0,0,459,43.5a52.34,52.34,0,0,0-9,.87A40.38,40.38,0,0,0,443.29,46l-1.71-11.69a56.49,56.49,0,0,1,7.87-1.85,62.06,62.06,0,0,1,11.05-.95Zm-42.8-6.77A8.63,8.63,0,1,0,409,16.12,8.67,8.67,0,0,0,417.7,24.75Zm7.18,70.43H410.55V33.74l14.33-2.26Zm-25.12,0c-23.36.11-23.36-18.86-23.36-21.88l0-71L390.61,0V70.61c0,1.71,0,12.56,9.15,12.59ZM353.43,63.73c0-6.15-1.35-11.28-4-14.85a13.95,13.95,0,0,0-22,0c-2.63,3.6-3.91,8.7-3.91,14.85s1.32,10.41,3.94,14a13.88,13.88,0,0,0,22,0C352.12,74.1,353.43,70,353.43,63.73Zm14.58,0a34.35,34.35,0,0,1-2.12,12.41,29.31,29.31,0,0,1-6,10.15,26.6,26.6,0,0,1-9.33,6.52,38.12,38.12,0,0,1-12.07,2.4,37.47,37.47,0,0,1-12-2.4,27.3,27.3,0,0,1-9.3-6.52,30,30,0,0,1-6.05-10.15A33.72,33.72,0,0,1,309,63.7a38.86,38.86,0,0,1,2.12-13.36,29.66,29.66,0,0,1,6.12-10.08,27.25,27.25,0,0,1,9.33-6.48,30.21,30.21,0,0,1,11.89-2.26,31,31,0,0,1,11.92,2.26,25.81,25.81,0,0,1,9.33,6.48,30,30,0,0,1,6,10.08A37.24,37.24,0,0,1,368,63.7Zm-107.29,0c0,6,1.31,12.59,3.94,15.35a13.36,13.36,0,0,0,10.17,4.15,21.72,21.72,0,0,0,6.42-.94A18.22,18.22,0,0,0,286.13,80V44.7a55.19,55.19,0,0,0-9.41-1.2,14.22,14.22,0,0,0-11.88,5.34C262.11,52.23,260.72,58.16,260.72,63.7Zm39.63,28.09q0,14.58-7.48,21.33T270,119.89a98.32,98.32,0,0,1-17.79-2.11l2.3-11.28a87.27,87.27,0,0,0,15.71,1.38q8.58,0,12.25-3.49c2.44-2.33,3.64-5.79,3.64-10.38V91.68a43.09,43.09,0,0,1-5.57,2.12,27.74,27.74,0,0,1-7.95,1A29.8,29.8,0,0,1,261.82,93a22.21,22.21,0,0,1-8.35-5.46,25,25,0,0,1-5.4-9c-1.27-3.61-1.93-10.05-1.93-14.78a44.69,44.69,0,0,1,2-13.72,26.16,26.16,0,0,1,6-9.57,27.41,27.41,0,0,1,9.59-6.19,35.16,35.16,0,0,1,12.93-2.44,77.3,77.3,0,0,1,13.06,1.28,105.05,105.05,0,0,1,10.57,2.21Z" style="fill:#5468ff"></path><rect x="557.77" y="29.88" width="194.23" height="69.72" rx="14.94" ry="14.94" style="fill:#5468ff;opacity:0.20000000298023224;isolation:isolate"></rect><path d="M592.64,74.71h4.43a10,10,0,0,0,8-3.24,13.19,13.19,0,0,0,2.73-8.77,11,11,0,0,0-2.93-8A10.42,10.42,0,0,0,597,51.65h-4.33Zm-6.48-28.59h11a16.91,16.91,0,0,1,12.3,4.63,15.58,15.58,0,0,1,5,11.7A17.24,17.24,0,0,1,609.77,75a16.7,16.7,0,0,1-12.45,4.74h-11Zm38.5,16.68A17.8,17.8,0,0,1,629,50.25a16.55,16.55,0,0,1,23.11,0,18.16,18.16,0,0,1,4.28,12.6,18,18,0,0,1-4.28,12.5,16.47,16.47,0,0,1-23.11,0A17.76,17.76,0,0,1,624.66,62.8Zm6.72,0a13,13,0,0,0,2.49,8.37,8.81,8.81,0,0,0,12.43.91,7.91,7.91,0,0,0,.92-.91,13.18,13.18,0,0,0,2.44-8.42,13.16,13.16,0,0,0-2.44-8.41,8.17,8.17,0,0,0-6.73-3.09,8.05,8.05,0,0,0-6.67,3.09A13.16,13.16,0,0,0,631.38,62.8Zm61.31-15.29v6.13a16.51,16.51,0,0,0-8.37-2.19,10.28,10.28,0,0,0-7.62,3.09,11.43,11.43,0,0,0-3.09,8.36,11.29,11.29,0,0,0,3.09,8.32,10.72,10.72,0,0,0,8,3.09,13.33,13.33,0,0,0,8.07-2.49v6.27a15.72,15.72,0,0,1-8.67,2,16.85,16.85,0,0,1-12.3-4.73,16.55,16.55,0,0,1-5-12.45,17.89,17.89,0,0,1,25.8-15.39Zm30.77,0v6.08a14.92,14.92,0,0,0-8-2.24,5.89,5.89,0,0,0-3.69,1,3.41,3.41,0,0,0,0,5.43,26.14,26.14,0,0,0,4.28,2.34l3.24,1.55A18.59,18.59,0,0,1,722,63.6a7,7,0,0,1,2.19,2.84,9.51,9.51,0,0,1,.75,3.83,8.9,8.9,0,0,1-3.24,7.17,12.84,12.84,0,0,1-8.42,2.64,18.45,18.45,0,0,1-9.41-2.14V71.52a15.77,15.77,0,0,0,9.36,3.09,5.75,5.75,0,0,0,3.69-1.15,3.9,3.9,0,0,0,1-4.58,4,4,0,0,0-1.45-1.4,13,13,0,0,0-1.64-1l-2.34-1.1-.75-.35a24.12,24.12,0,0,1-3-1.54,14.69,14.69,0,0,1-2.49-1.79,7.25,7.25,0,0,1-2-2.74,10.06,10.06,0,0,1-.65-3.64,8.54,8.54,0,0,1,3.14-6.87,12.91,12.91,0,0,1,8.42-2.59,18.92,18.92,0,0,1,8.26,1.64Z" style="fill:#5468ff"></path></svg>